<svg width="4507" height="2309" viewBox="0 0 4507 2309" fill="none" xmlns="http://www.w3.org/2000/svg">
<g filter="url(#filter0_d_1_4)">
<path d="M24.5 1635.5H383M1301.5 1635.5H794M1301.5 1635.5H1396M1301.5 1635.5L1373.5 1694.01M1888 2287.5V2056.5M1888 2287.5H1588.5H1405.5M1888 2287.5L1918.33 2288.04M0 2287.5H67.5M24.5 1690.5H1273.75C1278.12 1690.5 1282.35 1692.01 1285.74 1694.76L1589.26 1941.74C1592.65 1944.49 1596.89 1946 1601.25 1946H1888M1888 1946V1923.5C1888 1913.01 1879.49 1904.5 1869 1904.5H1639.25C1634.88 1904.5 1630.65 1903 1627.26 1900.24L1373.5 1694.01M1888 1946V2029M1888 2029V2056.5M1888 2029L1292.5 2024.56M1888 2029L1999.5 2040M10.5 2015L43 2015.24M1888 2056.5H10.5M383 1635.5V1473M383 1635.5H479.5M383 1473H362.5M383 1473H794M362.5 1473V1394M362.5 1473L434.683 1417.44C437.188 1415.51 440.135 1414.24 443.256 1413.74L564.502 1394.24C565.499 1394.08 566.508 1394 567.518 1394H686.874C689.27 1394 691.644 1394.45 693.871 1395.34L794 1435M825 1394V1368.33C825 1360.83 820.59 1354.03 813.743 1350.98L734.593 1315.66C732.874 1314.89 731.05 1314.38 729.182 1314.15L661.25 1305.75M825 1394L715.867 1356.47C714.957 1356.16 714.025 1355.91 713.078 1355.74L620.794 1339.01C618.942 1338.67 617.05 1338.61 615.18 1338.83L471.622 1355.75C470.212 1355.92 468.825 1356.24 467.487 1356.71L362.5 1394M825 1394L794 1435M362.5 1394V1370.13C362.5 1361.74 367.998 1354.35 376.028 1351.93L500.5 1314.5L568.918 1301.2M794 1435V1473M794 1635.5V1473M794 1635.5H747.5M438.5 1627.5V1516.5C438.5 1506.01 447.007 1497.5 457.5 1497.5H479.5M747.5 1635.5V1516.5C747.5 1506.01 738.993 1497.5 728.5 1497.5H694.875M747.5 1635.5H694.875M479.5 1497.5V1635.5M479.5 1497.5H537M479.5 1635.5H537M537 1497.5V1635.5M537 1497.5H642.25M537 1635.5H694.875M642.25 1497.5V1627.5M642.25 1497.5H694.875M694.875 1497.5V1635.5M10.5 1825H24C34.4934 1825 43 1833.51 43 1844V2015.24M43 2015.24L124 2015.85M124 2015.85V1844C124 1833.51 132.507 1825 143 1825H248C258.493 1825 267 1833.51 267 1844V2016.91M124 2015.85L267 2016.91M267 2016.91L383 2017.78M141 1923.5V1958C141 1968.49 149.507 1977 160 1977H189.75M141 1923.5V1889C141 1878.51 149.507 1870 160 1870H189.75M141 1923.5H238.5M238.5 1923.5V1889C238.5 1878.51 229.993 1870 219.5 1870H189.75M238.5 1923.5V1958C238.5 1968.49 229.993 1977 219.5 1977H189.75M189.75 1870V1977M794 1829.5V1816.66C794 1806.11 785.393 1797.57 774.837 1797.66L405.837 1800.84C395.407 1800.93 387 1809.41 387 1819.84V1835.5M794 1829.5L387 1835.5M794 1829.5V1856.5M387 1835.5V1856.5M387 1856.5L383 2017.78M387 1856.5H429.75M794 1856.5V2020.84M794 1856.5H753M383 2017.78L427.5 2018.11M794 2020.84L753 2020.54M794 2020.84L916 2021.75M753 1856.5V2020.54M753 1856.5H720M753 2020.54L720 2020.29M720 2020.29V1856.5M720 2020.29L663.5 2019.87M720 1856.5H663.5M663.5 1856.5V2019.87M663.5 1856.5H620M663.5 2019.87L620 2019.54M620 2019.54V1856.5M620 2019.54L561.5 2019.11M620 1856.5H561.5M561.5 1856.5V2019.11M561.5 1856.5H523M561.5 2019.11L523 2018.82M523 2018.82V1856.5M523 2018.82L427.5 2018.11M523 1856.5H472.5M472.5 1856.5V1999.93C472.5 2010.66 463.62 2019.26 452.894 2018.92L427.5 2018.11M472.5 1856.5H429.75M427.5 2018.11L429.75 1856.5M916 2021.75V1848.5C916 1838.01 924.507 1829.5 935 1829.5H1037C1047.49 1829.5 1056 1838.01 1056 1848.5V2022.8M916 2021.75L1056 2022.8M1056 2022.8L1140 2023.42M987.75 1870.5H944V1870.5C941.515 1870.5 939.5 1872.51 939.5 1875V1933.75M987.75 1870.5H1012.5C1022.99 1870.5 1031.5 1879.01 1031.5 1889.5V1933.75M987.75 1870.5L985.5 1997M985.5 1997H1012.5C1022.99 1997 1031.5 1988.49 1031.5 1978V1933.75M985.5 1997H958.5C948.007 1997 939.5 1988.49 939.5 1978V1933.75M939.5 1933.75H1031.5M1140 2023.42V1845.45C1140 1834.78 1148.78 1826.21 1159.45 1826.46L1270.32 1829.07C1280.49 1829.31 1288.66 1837.51 1288.87 1847.68L1292.5 2024.56M1140 2023.42L1292.5 2024.56M1163.5 1932V1894C1163.5 1883.51 1172.01 1875 1182.5 1875H1212.5M1163.5 1932V1970C1163.5 1980.49 1172.01 1989 1182.5 1989H1212.5M1163.5 1932L1261.5 1933.75M1261.5 1933.75V1970C1261.5 1980.49 1252.99 1989 1242.5 1989H1212.5M1261.5 1933.75V1894C1261.5 1883.51 1252.99 1875 1242.5 1875H1212.5M1212.5 1875V1989M10.5 2088.5H74C84.4934 2088.5 93 2097.01 93 2107.5V2287.5M93 2287.5H133.5M93 2287.5H67.5M133.5 2287.5V2107.5C133.5 2097.01 142.007 2088.5 152.5 2088.5H228.5C238.993 2088.5 247.5 2097.01 247.5 2107.5V2287.5M133.5 2287.5H146M247.5 2287.5H362.5M247.5 2287.5H234M362.5 2287.5V2107.5C362.5 2097.01 371.007 2088.5 381.5 2088.5H460.5C470.993 2088.5 479.5 2097.01 479.5 2107.5V2287.5M362.5 2287.5H385M479.5 2287.5H523M479.5 2287.5H459M523 2287.5V2107.5C523 2097.01 531.507 2088.5 542 2088.5H809.5C819.993 2088.5 828.5 2097.01 828.5 2107.5V2287.5M523 2287.5H551M828.5 2287.5H1056M828.5 2287.5H708M951 2285L944.701 2108.18C944.318 2097.42 952.93 2088.5 963.689 2088.5H1037C1047.49 2088.5 1056 2097.01 1056 2107.5V2287.5M1056 2287.5H1094M1094 2287.5V2116.5C1094 2106.01 1102.51 2097.5 1113 2097.5H1213C1223.49 2097.5 1232 2106.01 1232 2116.5V2287.5M1094 2287.5H1120.5M1232 2287.5H1252.5M1232 2287.5H1120.5M1252.5 2287.5V2116.5C1252.5 2106.01 1261.01 2097.5 1271.5 2097.5H1386.5C1396.99 2097.5 1405.5 2106.01 1405.5 2116.5V2287.5M1252.5 2287.5H1279M1405.5 2287.5H1279M10.5 2125H23.3352C27.6495 2125 31.8354 2126.47 35.2044 2129.16L60.3692 2149.3C64.8763 2152.9 67.5 2158.36 67.5 2164.13V2287.5M146 2287.5V2171.29C146 2167.51 147.123 2163.83 149.226 2160.7L165.052 2137.12C167.897 2132.89 172.327 2129.97 177.344 2129.04L189.519 2126.77C195.478 2125.66 201.609 2127.46 206.023 2131.61L221.177 2145.87C223.361 2147.93 225.028 2150.47 226.04 2153.3L232.885 2172.39C233.623 2174.45 234 2176.62 234 2178.8V2287.5M146 2287.5H234M661.25 1305.75V708.5M661.25 1305.75L610 1299.41M1396 1635.5V708.5M1396 1635.5H1470.5M1993 1635.5L1995.61 1579.89C1995.86 1574.55 1993.84 1569.34 1990.06 1565.56L1978.5 1554M1993 1635.5H2308M1993 1635.5L1996 1690.5M1993 1635.5H1971.5M1632.5 1635.5H1573M1632.5 1635.5V1414.5M1632.5 1635.5H1714.5M1950 1635.5V1414.5M1950 1635.5H1857.5M1950 1635.5H1971.5M2841 1394V1616.5C2841 1626.99 2832.49 1635.5 2822 1635.5H2759.5M2841 1394H2800.25M2841 1394V1341.5M2711 1394L2717.36 1408.32C2718.44 1410.74 2719 1413.37 2719 1416.03V1635.5M2711 1394H2759.5M2711 1394V1341.5M2719 1635.5H2759.5M2719 1635.5H2651.5M2759.5 1635.5V1394M2759.5 1394H2800.25M2800.25 1394V1622.5C2800.25 1632.99 2808.76 1641.5 2819.25 1641.5H2904M2904 1641.5V1187.5M2904 1641.5L2902.91 1641.49M2904 1187.5H2902.47C2892.55 1187.5 2884.5 1179.45 2884.5 1169.53V1169.53C2884.5 1161.75 2889.49 1154.86 2896.88 1152.44L2913.5 1147M2904 1187.5L3191 1173M2913.5 1147L2909.81 1132.05C2906.86 1120.07 2915.92 1108.5 2928.26 1108.5H3176.14C3184.35 1108.5 3191 1115.15 3191 1123.36V1123.36C3191 1127.58 3192.8 1131.61 3195.95 1134.43L3210 1147M2913.5 1147H3210M3210 1147V1154C3210 1164.49 3201.49 1173 3191 1173V1173M3191 1173V1187.5M3191 1173H3215C3225.49 1173 3234 1181.51 3234 1192V1202M3191 1187.5L3145.5 1202M3191 1187.5L3149.02 1269.08C3147.69 1271.66 3146.97 1274.51 3146.92 1277.41L3145.5 1352.5M2973 1356L3019.1 1279.17C3020.35 1277.08 3022 1275.24 3023.96 1273.77L3060.5 1246.25M2973 1356V1398.9M2973 1356H3041.5M3382.5 1356H4069.5M3382.5 1356L3370.5 1329.25M3382.5 1356H3324.75M3358.5 1302.5L3292.66 1241.08C3291.89 1240.36 3291.06 1239.71 3290.18 1239.12L3277.12 1230.5M3358.5 1302.5L3370.5 1329.25M3358.5 1302.5L3415.17 1258.42M3234 1202L3250.94 1251.37C3251.31 1252.45 3251.59 1253.57 3251.76 1254.71L3267 1356M3234 1202L3262.75 1221M2719 1156.5L2712.9 1169.07C2711.65 1171.66 2711 1174.49 2711 1177.36V1240M2719 1156.5V1108.5M2719 1156.5H2841M2719 1108.5H2841M2719 1108.5L2704 1062M2841 1108.5L2832.24 1126.67C2829.31 1132.76 2829.83 1139.95 2833.61 1145.55L2841 1156.5M2841 1108.5L2848.7 1096.24C2852.29 1090.52 2852.57 1083.32 2849.44 1077.33L2841.41 1062M2841 1156.5V1240M2711 1240L2734.47 1206.97C2736.77 1203.74 2740.01 1201.3 2743.76 1200.01L2771.89 1190.3C2777.05 1188.52 2782.72 1189.04 2787.46 1191.73L2810.43 1204.76C2812.46 1205.91 2814.26 1207.43 2815.74 1209.23L2841 1240M2711 1240V1341.5M2841 1240V1341.5M2711 1341.5L2735.79 1305.69C2737.25 1303.58 2739.11 1301.8 2741.28 1300.43L2768.62 1283.18C2775.44 1278.88 2784.23 1279.34 2790.55 1284.35L2811.34 1300.79C2812.77 1301.93 2814.03 1303.26 2815.08 1304.75L2841 1341.5M1002 1043V1117.48C1002 1129.08 1012.31 1137.97 1023.78 1136.27L1037.54 1134.23C1047.79 1132.72 1054.93 1123.27 1053.6 1113L1047.24 1063.9C1046.2 1055.88 1040.19 1049.39 1032.27 1047.74L1009.5 1043M916 1243V1250M916 1250V1286.75C916 1297.24 924.507 1305.75 935 1305.75H948.66C958.055 1305.75 966.04 1298.88 967.446 1289.59L970.764 1267.67C972.643 1255.26 962.185 1244.47 949.721 1245.96L916 1250ZM661.25 708.5V691.5C661.25 681.007 669.757 672.5 680.25 672.5H688.5M661.25 708.5H1396M1396 708.5V691.5C1396 681.007 1387.49 672.5 1377 672.5H1356.5M688.5 672.5V538.916C688.5 530.954 694.954 524.5 702.916 524.5H704.912C714.238 524.5 720.543 534.042 716.972 542.657V542.657C716.332 544.198 716 545.859 716 547.528V551.499C716 556.218 719.781 560.067 724.5 560.151V560.151M688.5 672.5H724.5M1356.5 672.5V534V531.73C1356.5 523.295 1350.94 515.87 1342.84 513.497L1335.36 511.304C1330.57 509.9 1325.4 511.412 1322.12 515.176V515.176C1317.59 520.375 1318 528.229 1323.05 532.929L1330.3 539.693C1333.94 543.078 1336 547.82 1336 552.785V552.785C1336 562.792 1327.79 570.854 1317.79 570.677L1277.75 569.967M1356.5 672.5H1277.75M724.5 560.151V672.5M724.5 560.151L772 560.994M724.5 672.5H772M772 560.994V672.5M772 560.994L821.5 561.872M772 672.5H821.5M821.5 561.872V672.5M821.5 561.872L855.75 562.479M821.5 672.5H890M890 563.087V672.5M890 563.087L855.75 562.479M890 563.087L924 563.69M890 672.5H974.5M974.5 564.586V672.5M974.5 564.586L1094 566.706M974.5 564.586L958 564.294M974.5 672.5H1094M1094 566.706V672.5M1094 566.706L1067.08 521.803C1065.39 518.983 1063 516.649 1060.13 515.032L1038.86 503.006C1033.32 499.879 1026.59 499.725 1020.92 502.597L995.654 515.396C992.925 516.778 990.57 518.799 988.79 521.286L958 564.294M1094 566.706L1128.75 567.323M1094 672.5H1163.5M1163.5 567.94V672.5M1163.5 567.94L1199.5 568.578M1163.5 567.94L1128.75 567.323M1163.5 672.5H1219.5M1219.5 568.933V672.5M1219.5 568.933L1277.75 569.967M1219.5 568.933L1199.5 568.578M1219.5 672.5H1277.75M1277.75 569.967V672.5M855.75 562.479V465.5M855.75 438H1199.5M855.75 438L927.617 370.247C929.194 368.76 931.014 367.554 932.998 366.681L1022.31 327.384C1027.21 325.229 1032.79 325.239 1037.68 327.412L1125.81 366.581C1127.92 367.519 1129.84 368.834 1131.48 370.461L1199.5 438M855.75 438V465.5M1199.5 438V465.5M1199.5 568.578V465.5M855.75 465.5H941M1199.5 465.5H1094M958 564.294L924 563.69M941 465.5V511.747C941 515.498 939.89 519.165 937.809 522.287L932.074 530.889C930.704 532.943 929.748 535.245 929.259 537.665L924 563.69M941 465.5H1094M1094 465.5L1105.5 498L1117.21 522.821C1117.73 523.938 1118.15 525.103 1118.45 526.301L1128.75 567.323M568.918 1301.2L587.537 1297.58C589.5 1297.19 591.511 1297.13 593.496 1297.37L610 1299.41M568.918 1301.2L566.433 1229.5M610 1217C606.333 1212.83 598.2 1204.5 595 1204.5C592.909 1204.5 584.729 1208.06 576.984 1211.69C570.252 1214.84 566.165 1221.77 566.423 1229.2L566.433 1229.5M610 1217L598.257 1228.44C593.449 1233.13 586.525 1234.93 580.044 1233.18L566.433 1229.5M610 1217V1299.41M385 2287.5V2166.31C385 2162.21 386.325 2158.23 388.777 2154.94L406.331 2131.44C411.212 2124.9 419.721 2122.21 427.473 2124.75L438.051 2128.22C442.524 2129.69 446.293 2132.76 448.628 2136.85L456.497 2150.62C458.137 2153.49 459 2156.74 459 2160.05V2287.5M385 2287.5H459M551 2287.5L546.392 2159.86C546.149 2153.13 549.485 2146.78 555.161 2143.16L571.89 2132.48C573.944 2131.17 576.224 2130.26 578.629 2129.87C589.164 2128.18 605.655 2126.59 608.5 2130.5C612.5 2136 627 2170 625.5 2175.5C624.3 2179.9 625 2252 625.5 2287.5M551 2287.5H625.5M625.5 2287.5H708M708 2287.5V2163.72C708 2161.26 708.476 2158.83 709.4 2156.56L714.729 2143.46C717.864 2135.75 725.649 2130.98 733.939 2131.69L761.808 2134.06C765.207 2134.35 768.469 2135.53 771.205 2137.57C781.018 2144.87 795 2156.19 795 2160C795 2164.4 797.333 2248.17 798.5 2289.5M1120.5 2287.5V2196.91C1120.5 2195.97 1120.57 2195.03 1120.71 2194.11L1126.83 2153.05C1128.11 2144.49 1135.02 2137.87 1143.63 2136.96L1160.31 2135.2C1164.64 2134.75 1168.99 2135.79 1172.64 2138.16L1186.23 2146.98C1191.96 2150.7 1195.24 2157.2 1194.91 2164.02C1193.74 2188.21 1192.76 2222.76 1195.5 2225.5C1198.7 2228.7 1199.17 2268.5 1199 2288M1279 2287.5L1283 2200.5V2153.69C1283 2144.81 1289.15 2137.1 1297.84 2135.22C1308.74 2132.86 1320.14 2130.5 1322 2130.5C1324.3 2130.5 1338.62 2137 1349.22 2142C1353.29 2143.92 1356.5 2147.25 1358.33 2151.36L1371.69 2181.42C1372.88 2184.1 1373.43 2187.03 1373.31 2189.96L1369 2289.5M1470.5 1635.5V1412M1470.5 1635.5H1509.5M1470.5 1412L1455.37 1406.18C1452.56 1405.1 1450.28 1402.99 1448.99 1400.27V1400.27C1445.28 1392.49 1450.96 1383.5 1459.58 1383.5H1573M1470.5 1412L1509.5 1411.14M1573 1635.5V1426.13C1573 1419.03 1577.09 1412.55 1583.5 1409.5V1409.5M1573 1635.5H1541.25M1583.5 1409.5L1586.66 1407.99C1591.14 1405.86 1594 1401.34 1594 1396.37V1396.37C1594 1389.26 1588.24 1383.5 1581.13 1383.5H1573M1583.5 1409.5L1546.5 1410.32M1509.5 1411.14V1635.5M1509.5 1411.14L1546.5 1410.32M1509.5 1635.5H1541.25M1546.5 1410.32L1541.25 1635.5M1463 1384.5V1341.5M1463 1276H1573M1463 1276V1341.5M1463 1276L1470.5 1216.5M1573 1276V1341.5M1573 1276V1216.5M1573 1383.5V1341.5M1463 1341.5L1505.22 1309.04C1508.02 1306.89 1511.36 1305.56 1514.87 1305.2L1531.05 1303.54C1537.42 1302.89 1543.68 1305.49 1547.72 1310.45L1573 1341.5M1470.5 1216.5L1490 1209.25L1505.46 1203.5C1508.12 1202.51 1510.97 1202.13 1513.8 1202.39L1553.87 1206.03C1557.23 1206.34 1560.45 1207.53 1563.19 1209.49L1573 1216.5M1470.5 1216.5V1169.5C1470.5 1162.32 1476.32 1156.5 1483.5 1156.5V1156.5M1573 1216.5V1156.5M1573 1156.5H1483.5M1573 1156.5L1582.51 1113.02C1583.16 1110.05 1584.51 1107.28 1586.45 1104.94L1601.12 1087.28C1603.95 1083.87 1605.5 1079.57 1605.5 1075.14V1062M1483.5 1156.5V1108.5C1483.5 1100.92 1478.99 1094.06 1472.02 1091.05L1462.48 1086.95C1455.51 1083.94 1451 1077.08 1451 1069.5V1062M1451 1062V844M1451 1062H1490M1605.5 1062V849M1605.5 1062H1559M1451 844V820M1451 844L1490 845.262M1605.5 849V820M1605.5 849L1559 847.495M1451 820V804.532C1451 799.105 1453.32 793.937 1457.38 790.331L1463 785.333M1451 820H1605.5M1605.5 820V798.811C1605.5 793.807 1603.53 789.005 1600.01 785.448L1582.25 767.5M1490 845.262V1062M1490 845.262L1559 847.495M1490 1062H1559M1559 847.495V1062M1463 785.333L1504.1 748.799C1507.58 745.708 1512.07 744 1516.72 744H1551.07C1556.14 744 1561.01 746.03 1564.58 749.637L1582.25 767.5M1463 785.333V662M1582.25 767.5L1583.13 662M1463 662V629C1463 622.925 1458.08 618 1452 618V618C1445.92 618 1441 613.075 1441 607V602C1441 593.163 1448.16 586 1457 586H1589.5C1598.34 586 1605.5 593.163 1605.5 602V606.954C1605.5 613.055 1600.55 618 1594.45 618V618C1588.39 618 1583.46 622.889 1583.41 628.954L1583.13 662M1463 662L1484.44 640.565C1488 637.002 1492.83 635 1497.87 635H1540.25C1544.31 635 1548.26 636.299 1551.53 638.706L1583.13 662M1632.5 1108.5V681C1632.5 670.507 1641.01 662 1651.5 662H1931C1941.49 662 1950 670.507 1950 681V1108.5M1632.5 1108.5V1187.5M1632.5 1108.5H1654M1950 1108.5H1916.5M1950 1108.5V1148M1632.5 1322L1709.12 1254.72C1712.59 1251.68 1717.04 1250 1721.66 1250H1801.47C1803.48 1250 1805.47 1250.32 1807.38 1250.94L1879.72 1274.6C1882.53 1275.52 1885.09 1277.09 1887.2 1279.17L1950 1341.5M1632.5 1322V1414.5M1632.5 1322V1227M1950 1341.5V1414.5M1950 1341.5V1227M1632.5 1414.5H1696M1950 1414.5H1868M1714.5 1635.5V1484.71C1714.5 1480.37 1715.99 1476.16 1718.71 1472.78L1744.3 1441.07C1747.9 1436.6 1753.34 1434 1759.08 1434H1813.34C1819.13 1434 1824.6 1436.64 1828.21 1441.17L1853.37 1472.81C1856.04 1476.17 1857.5 1480.34 1857.5 1484.64V1635.5M1714.5 1635.5H1750M1857.5 1635.5H1822.5M1632.5 1187.5H1950M1632.5 1187.5V1227M1950 1187.5V1227M1950 1187.5V1148M1632.5 1227H1950M1978.5 1554L1996 1527M1978.5 1554H2308M1996 1527L2014.5 1450.27C2015.77 1445.01 2019.23 1440.54 2024 1437.98L2089.94 1402.64C2091.96 1401.56 2094.17 1400.85 2096.44 1400.55L2109 1398.9M1996 1527H2308M2308 1554V1635.5M2308 1554V1527M2308 1635.5H2356.5M2308 1635.5V1678.5M2308 1635.5L2435.37 1636.78M2308 1527V1513.54C2308 1511.2 2307.57 1508.88 2306.73 1506.7L2281.23 1440.59C2279.48 1436.04 2276.04 1432.34 2271.63 1430.25L2257 1423.32M1654 1108.5V790.78C1654 787.221 1655 783.733 1656.89 780.714L1697.01 716.482C1700.16 711.452 1705.47 708.178 1711.37 707.63L1794.78 699.892C1797.56 699.634 1800.36 699.992 1802.99 700.94L1867.39 724.196C1869.77 725.057 1871.96 726.386 1873.82 728.105L1910.39 761.858C1914.28 765.454 1916.5 770.516 1916.5 775.819V1108.5M1654 1108.5H1681.5M1916.5 1108.5H1887M1848.5 861.5V826.735C1848.5 820.623 1845.56 814.884 1840.6 811.313L1809.47 788.912C1806.24 786.585 1802.36 785.333 1798.37 785.333H1756.14C1752.15 785.333 1748.26 786.592 1745.02 788.93L1709.88 814.312C1704.93 817.884 1702 823.614 1702 829.715V842.5C1702 852.993 1710.51 861.5 1721 861.5H1848.5ZM1848.5 861.5H1865.23C1875.63 861.5 1884.1 869.867 1884.23 880.269L1887 1108.5M1681.5 861.5V1108.5M1681.5 1108.5H1714.5M1714.5 1108.5L1716.38 931.526C1716.45 924.443 1720.46 917.989 1726.78 914.784L1746.64 904.705C1748.86 903.579 1751.28 902.9 1753.76 902.706L1808.69 898.415C1812.16 898.143 1815.64 898.831 1818.75 900.402L1847.07 914.728C1853.47 917.961 1857.5 924.517 1857.5 931.683V1062M1714.5 1108.5H1857.5M1857.5 1108.5H1887M1857.5 1108.5V1062M1714.5 1062H1750M1857.5 1062H1814M1814 1062L1815.18 990.815C1815.36 980.2 1806.8 971.5 1796.18 971.5H1769C1758.51 971.5 1750 980.007 1750 990.5V1062M1814 1062H1750M1750 1635.5V1529C1750 1518.51 1758.51 1510 1769 1510H1800.1C1810.35 1510 1818.76 1518.14 1819.09 1528.39L1822.5 1635.5M1750 1635.5H1822.5M1696 1414.5C1700.67 1395.5 1710.9 1355.9 1714.5 1349.5C1717.76 1343.71 1746.09 1327.66 1763.8 1318.24C1767.18 1316.44 1771.04 1315.75 1774.84 1316.21L1816.16 1321.23C1820.27 1321.73 1824.11 1323.56 1827.09 1326.44L1849.93 1348.56C1852.59 1351.13 1854.43 1354.42 1855.25 1358.02L1868 1414.5M1696 1414.5H1868M1373.5 1694.01L1996 1690.5M1996 1690.5L1996.87 1777.5M1999.5 2040V2085M1999.5 2040L1998.19 1908.75M1999.5 2040H2056.5M1999.5 2289.5L1918.33 2288.04M1999.5 2289.5V2130M1999.5 2289.5H2081.38M1918.33 2288.04V2149.3C1918.33 2138.88 1926.71 2130.41 1937.12 2130.3L1945.29 2130.21C1955.87 2130.09 1964.5 2138.63 1964.5 2149.21V2289.5M2036.5 1777.5V1697.5C2036.5 1687.01 2045.01 1678.5 2055.5 1678.5H2081.38M2036.5 1777.5H1996.87M2036.5 1777.5H2081.38M1996.87 1777.5L1998.19 1908.75M2308 1777.5V1678.5M2308 1777.5H2262M2308 1777.5V1829.5M2308 1678.5H2262M2216 1777.5V1678.5M2216 1777.5H2262M2216 1777.5H2173.5M2216 1678.5H2262M2216 1678.5H2126.25M2262 1678.5V1777.5M2173.5 1683V1777.5M2173.5 1777.5H2126.25M2126.25 1678.5V1777.5M2126.25 1678.5H2081.38M2126.25 1777.5H2081.38M2081.38 1777.5V1678.5M1999.5 1829.5H2308M2308 1829.5V1904.5M2308 2040V2087.25M2308 2040V1904.5M2308 2040H2246.25M2308 2289.5V2134.5M2308 2289.5H2227.23M2308 2289.5L2973 2287.5M1999.5 2130V2085M1999.5 2130L2081.38 2131.19M2308 2134.5V2087.25M2308 2134.5L2227.23 2133.32M1999.5 2085L2308 2087.25M1998.19 1908.75L2056.5 1907.95M2308 1904.5L2247.5 1905.33M2081.38 2289.5V2131.19M2081.38 2289.5H2126.25M2081.38 2131.19L2227.23 2133.32M2227.23 2133.32V2289.5M2227.23 2289.5H2184.5M2126.25 2289.5V2191.5C2126.25 2181.01 2134.76 2172.5 2145.25 2172.5H2165.5C2175.99 2172.5 2184.5 2181.01 2184.5 2191.5V2289.5M2126.25 2289.5H2184.5M2056.5 1907.95V2040M2056.5 1907.95L2247.5 1905.33M2056.5 2040H2081.38M2081.38 2040V1952.43C2081.38 1942.06 2089.69 1933.61 2100.05 1933.43L2165.18 1932.33C2175.8 1932.15 2184.5 1940.71 2184.5 1951.33V2040M2081.38 2040H2184.5M2184.5 2040H2246.25M2247.5 1905.33L2246.25 2040M1971.5 1635.5V1394M1978.5 1209.25L1972.82 1223.64C1971.95 1225.86 1971.5 1228.23 1971.5 1230.61V1310.5M1978.5 1209.25L2093 1216.5M1978.5 1209.25V922.95C1978.5 920.995 1978.2 919.052 1977.61 917.189L1971.5 898M2093 1216.5L2106.76 1242.31C2108.23 1245.06 2109 1248.13 2109 1251.25V1302.5M2093 1216.5L2084.12 1194.34C2082.35 1189.94 2082.3 1185.04 2083.96 1180.6L2091.94 1159.33C2092.64 1157.46 2093.64 1155.7 2094.89 1154.14L2109 1136.5M2109 1398.9L2046.73 1359.05C2040.49 1355.06 2032.5 1355.05 2026.26 1359.04L1971.5 1394M2109 1398.9V1322M2109 1398.9L2146.75 1393.95M1971.5 1394V1310.5M2109 1302.5L2086.72 1260.15C2083.43 1253.91 2076.96 1250 2069.9 1250H2020.99C2018.04 1250 2015.13 1250.69 2012.49 1252.01L1964.5 1276M2109 1302.5V1322M1971.5 1310.5L2109 1322M2109 1136.5L2095.5 1112.88C2093.86 1110.01 2093 1106.76 2093 1103.45V923.982C2093 921.356 2093.54 918.758 2094.6 916.353L2107.4 887.147C2108.46 884.742 2109 882.144 2109 879.518V785.333M2109 1136.5L2056.5 1130M2109 767.5L2083.66 745.948C2082.15 744.657 2080.44 743.613 2078.6 742.854L2043.86 728.532C2039.15 726.592 2033.86 726.622 2029.18 728.614L1998.08 741.842C1994.76 743.251 1991.91 745.575 1989.87 748.541L1978.75 764.667M2109 767.5V785.333M2109 767.5V699.5M1964.5 785.333L1971.5 898M1964.5 785.333H2109M1964.5 785.333L1978.75 764.667M1971.5 898L2040.25 900.5L2074.62 901.75M2109 903L2074.62 901.75M2016.5 903V1119.94C2016.5 1126.23 2013.38 1132.12 2008.18 1135.65L2003.25 1139M2074.62 901.75L2056.5 1130M2056.5 1130L2003.25 1139M1950 1148L2003.25 1139M1978.75 764.667L1978.67 672.5M2093 672.5V476.939C2093 469.384 2097.48 462.547 2104.4 459.525L2105.48 459.055C2114.11 455.289 2118.68 445.769 2116.22 436.678L2114.75 431.25M2093 672.5L2109 699.5M2093 672.5H2065.62M2109 699.5L2166.73 638.463C2168.88 636.189 2171.55 634.482 2174.52 633.493L2213.77 620.41C2218.41 618.863 2223.47 619.166 2227.89 621.254L2257 635M2109 699.5L2257.82 688.369C2272.15 687.298 2280.15 671.327 2272.43 659.211L2257 635M2257 635H2902.91M1978.67 672.5L1978.51 477.104C1978.5 469.465 1973.92 462.573 1966.88 459.609L1966.33 459.376C1957.13 455.503 1952.5 445.175 1955.72 435.73L1957.25 431.25M1978.67 672.5H2016.5M1957.25 431.25L1962.62 415.504C1963.85 411.917 1966.11 408.778 1969.14 406.49L2025.07 364.15C2031.84 359.03 2041.18 359.014 2047.96 364.112L2103.78 406.077C2107.16 408.619 2109.6 412.218 2110.71 416.302L2114.75 431.25M1957.25 431.25H2016.5M2114.75 431.25H2065.62M2016.5 431.25V672.5M2016.5 431.25H2065.62M2016.5 672.5H2065.62M2065.62 431.25V672.5M4157 699.5L4173.02 671.55C4176.41 665.643 4182.7 662 4189.51 662H4468.5C4478.99 662 4487.5 670.507 4487.5 681V699.5M4157 699.5L4178.5 767.5M4157 699.5H4251.5M4487.5 699.5H4251.5M4487.5 699.5V1062M4178.5 767.5L4251.5 699.5M4178.5 767.5V1062M4178.5 1136.5L4204 1188.5M4178.5 1136.5L4454.5 1130M4178.5 1136.5V1062M4204 1188.5L4173.66 1210.5M4204 1188.5L4219.5 1193.2M4091.5 1326.5L4121.95 1251.54C4123.29 1248.25 4125.53 1245.39 4128.4 1243.31L4148.83 1228.5M4091.5 1326.5L4069.5 1330M4091.5 1326.5L4069.5 1356M4091.5 1326.5L4140 1328.23M4276.5 1210.5L4360 1240M4276.5 1210.5L4248 1201.85M4276.5 1210.5L4287.5 1216.23M3735.5 1185L3683.68 1190.9M3735.5 1185L3776.13 1249.35C3778.05 1252.39 3779.07 1255.91 3779.07 1259.5V1329.69M3735.5 1185L3761 1188.73M4069.5 1330L4043.24 1284.27C4041.45 1281.15 4038.82 1278.61 4035.64 1276.93L4000.63 1258.42M4069.5 1330V1356M4069.5 1330L3924.28 1329.84M4069.5 1356H4389.65C4396.1 1356 4402.11 1359.27 4405.61 1364.69L4425.5 1395.5M4069.5 1356V1395.5M3370.5 1329.25L3470.33 1329.36M3470.33 1329.36L3504.14 1272.47C3505.69 1269.86 3507.84 1267.66 3510.42 1266.06L3619.13 1198.24M3470.33 1329.36L3637.4 1329.54M3619.13 1198.24L3548.57 1206.26C3547.2 1206.42 3545.84 1206.73 3544.53 1207.18L3449.35 1240M3619.13 1198.24L3683.68 1190.9M3637.4 1329.54V1260.22C3637.4 1256.18 3638.69 1252.24 3641.08 1248.98L3683.68 1190.9M3637.4 1329.54L3779.07 1329.69M3779.07 1329.69L3924.28 1329.84M3924.28 1329.84L3911.43 1274.64C3910.5 1270.65 3908.31 1267.07 3905.18 1264.43L3826.97 1198.37M3826.97 1198.37L3906.76 1210.03C3908.9 1210.34 3910.98 1211.02 3912.89 1212.03L3965.79 1240M3826.97 1198.37L3810.5 1195.96M2973 1398.9L4425.5 1395.5M2973 1398.9L2945.18 1401.52C2930.86 1402.87 2923.17 1419.01 2931.15 1430.98L2931.4 1431.36C2934.62 1436.18 2939.87 1439.28 2945.66 1439.75L2973 1442M4425.5 1395.5L4437.71 1396.93C4447.28 1398.06 4454.5 1406.17 4454.5 1415.8V1418.45C4454.5 1426.56 4449.36 1433.77 4441.69 1436.42L4425.5 1442M2973 1442H4425.5M2973 1442V1478M2973 2287.5L3412.23 2288.1M2973 2287.5V2195.5M4425.5 1442V1478M4454.5 1216.5L4360 1240M4454.5 1216.5V2289.5M4454.5 1216.5V1130M4360 1240L4454.5 1326.5M4454.5 1130H4468.5C4478.99 1130 4487.5 1121.49 4487.5 1111V1062M4178.5 1062H4276.5M4251.5 1139C4251.5 1106.76 4242.72 966.305 4237.5 887.465C4236.96 879.366 4243.38 872.5 4251.5 872.5V872.5M4400 1130L4423.43 893.372C4424.54 882.194 4415.76 872.5 4404.53 872.5H4400M4276.5 1062L4285.32 977.042C4286.48 965.804 4297.14 958.061 4308.19 960.423L4345.88 968.482C4354.23 970.266 4360.36 977.393 4360.88 985.909L4365.5 1062M4276.5 1062H4365.5M4365.5 1062H4454.5H4487.5M4251.5 872.5V825.592C4251.5 820.13 4253.85 814.933 4257.95 811.325L4282.12 790.067C4285.59 787.016 4290.05 785.333 4294.67 785.333H4354.63C4361.37 785.333 4367.6 788.898 4371.01 794.702L4397.38 839.541C4399.09 842.461 4400 845.786 4400 849.173V872.5M4251.5 872.5H4400M2976.5 1719H3041.5M4425.5 1719V1777.5M4425.5 1719H4360M4425.5 1719V1478M4425.5 1777.5V2270.47C4425.5 2280.98 4416.98 2289.49 4406.47 2289.47L4000.63 2288.92M4425.5 1777.5H4000.63M2973 1777.5H3358.5M2973 1777.5V1478M2973 1777.5V2195.5M3100 2289.5V2152.81C3100 2147.81 3101.97 2143 3105.49 2139.45L3141.42 2103.14C3144.99 2099.53 3149.86 2097.5 3154.93 2097.5H3223.19C3229.89 2097.5 3236.1 2101.03 3239.52 2106.79L3264.33 2148.51C3266.08 2151.45 3267 2154.8 3267 2158.22V2287.5M3358.5 1777.5V2268.71C3358.5 2279.12 3366.88 2287.59 3377.29 2287.71L3412.23 2288.1M3358.5 1777.5H3412.23M3412.23 2288.1V1777.5M3412.23 2288.1L3537.54 2288.28M3412.23 1777.5H3918.86M3918.86 1777.5L3924.08 2270.56C3924.19 2281.03 3932.76 2289.44 3943.23 2289.35L4000.63 2288.92M3918.86 1777.5H4000.63M4000.63 2288.92V1777.5M4000.63 2288.92L3662.85 2288.45M4124 2289.5V2139.24C4124 2133.41 4126.68 2127.9 4131.27 2124.29L4173.34 2091.3C4176.68 2088.68 4180.81 2087.25 4185.06 2087.25H4274.91C4282.54 2087.25 4289.43 2091.82 4292.41 2098.84L4311.5 2143.95C4312.49 2146.29 4313 2148.81 4313 2151.36V2287.5M3826.97 2287.5V2075.21C3826.97 2064.83 3818.65 2056.37 3808.27 2056.21L3620.29 2053.3C3609.69 2053.13 3601 2061.69 3601 2072.3V2270.17C3601 2280.79 3609.7 2289.35 3620.32 2289.17L3662.85 2288.45M3662.85 2288.45L3759.99 2288.84C3770.51 2288.88 3779.07 2280.36 3779.07 2269.84V2145.5C3779.07 2138.08 3774.74 2131.34 3768 2128.24L3719.06 2105.77C3711.57 2102.33 3702.72 2104.11 3697.15 2110.18L3667.86 2142.05C3664.64 2145.55 3662.85 2150.14 3662.85 2154.9V2288.45ZM3662.85 2288.45L3537.54 2288.28M3506.5 2287.5V1992.68C3506.5 1990.25 3506.97 1987.84 3507.87 1985.59L3544.23 1895.15C3545.71 1891.48 3548.3 1888.35 3551.64 1886.22L3633.29 1834.12C3635.99 1832.4 3639.07 1831.39 3642.26 1831.18L3730.15 1825.35C3733.65 1825.12 3737.14 1825.86 3740.25 1827.5L3845.74 1882.97C3849.48 1884.94 3852.45 1888.08 3854.19 1891.92L3882.79 1954.75C3883.92 1957.22 3884.5 1959.91 3884.5 1962.62V2289.5M3537.54 2288.28V1995.6C3537.54 1991.33 3538.98 1987.17 3541.64 1983.82L3597.9 1912.67C3599.93 1910.1 3602.59 1908.1 3605.62 1906.86L3678.15 1877.26C3681.75 1875.79 3685.71 1875.46 3689.5 1876.31L3789.19 1898.74C3794.18 1899.87 3798.51 1902.96 3801.2 1907.32L3848.68 1984.42C3850.52 1987.41 3851.5 1990.86 3851.5 1994.38V2287.5M3041.5 1719V1545.69C3041.5 1535.32 3049.82 1526.86 3060.19 1526.7L3298.69 1522.81C3309.3 1522.64 3318 1531.2 3318 1541.81V1719M3041.5 1719H3147M3318 1719H3370.5M3318 1719H3191M3370.5 1719L3381.44 1539.93C3382.04 1530.08 3390.09 1522.32 3399.96 1522.1L3904.84 1510.45C3915.51 1510.2 3924.28 1518.78 3924.28 1529.44V1719M3370.5 1719H3506.5M3924.28 1719H4091.5M3924.28 1719H3884.5M4091.5 1719V1541.82C4091.5 1531.2 4100.2 1522.65 4110.82 1522.82L4341.32 1526.69C4351.69 1526.86 4360 1535.31 4360 1545.68V1719M4091.5 1719H4124M4360 1719H4313M4124 1719L4131 1599.95C4131.32 1594.57 4133.91 1589.58 4138.12 1586.22L4162.47 1566.79C4171.12 1559.89 4183.81 1561.81 4190.03 1570.96L4200.71 1586.66C4202.85 1589.82 4204 1593.54 4204 1597.35V1719M4124 1719H4204M4204 1719H4251.5M4251.5 1719V1597.25C4251.5 1593.5 4252.61 1589.83 4254.69 1586.71L4267.35 1567.72C4272.6 1559.85 4282.84 1557.04 4291.37 1561.13L4302.21 1566.33C4308.81 1569.49 4313 1576.15 4313 1583.46V1719M4251.5 1719H4313M3506.5 1719V1602.16C3506.5 1595.54 3509.95 1589.4 3515.6 1585.94L3560.28 1558.66C3567.27 1554.39 3576.22 1555.08 3582.47 1560.39L3612.42 1585.81C3616.68 1589.42 3619.13 1594.72 3619.13 1600.29V1719M3506.5 1719H3619.13M3619.13 1719H3662.85M3662.85 1719V1600.23C3662.85 1594.69 3665.27 1589.42 3669.47 1585.81L3696.07 1562.96C3702.3 1557.61 3711.25 1556.86 3718.27 1561.1L3732.71 1569.82C3734.56 1570.93 3736.2 1572.35 3737.57 1574.01L3756.67 1597.24C3759.47 1600.64 3761 1604.91 3761 1609.31V1719M3662.85 1719H3761M3761 1719H3797M3797 1719V1601.49C3797 1595.24 3800.08 1589.38 3805.23 1585.84L3842.01 1560.53C3847.84 1556.52 3855.42 1556.08 3861.68 1559.4L3874.4 1566.14C3880.61 1569.44 3884.5 1575.9 3884.5 1582.93V1719M3797 1719H3884.5M4425.5 1478H2973M3078 1722.5V1583.68C3078 1576.26 3082.32 1569.51 3089.06 1566.41L3110.96 1556.34C3117.43 1553.37 3125.02 1554.26 3130.63 1558.66L3139.73 1565.79C3144.32 1569.4 3147 1574.91 3147 1580.74V1719M3147 1719H3191M3191 1719V1600.14C3191 1594.65 3193.37 1589.43 3197.51 1585.82L3219.74 1566.43C3227.63 1559.56 3239.59 1560.35 3246.5 1568.2L3262.26 1586.12C3265.32 1589.59 3267 1594.05 3267 1598.67V1722.5M2146.75 1393.95L2178.95 1389.73C2182.57 1389.25 2186.26 1389.83 2189.56 1391.39L2257 1423.32M2146.75 1393.95V1331.23M2146.75 1216.5L2133.75 1198.11C2129.23 1191.71 2129.1 1183.2 2133.42 1176.66L2146.75 1156.5M2146.75 1216.5V1268.5M2146.75 1216.5L2167.5 1194.01C2171.3 1189.88 2176.74 1187.65 2182.35 1187.91L2238.95 1190.55C2243.65 1190.77 2248.1 1192.73 2251.44 1196.04L2262 1206.5M2146.75 1156.5V1108.5M2146.75 1156.5H2262M2146.75 1156.5H2278.5M2278.5 1156.5L2284.63 1173.79C2287.51 1181.88 2284.59 1190.89 2277.53 1195.77L2262 1206.5M2278.5 1156.5H2262M2262 1206.5L2257 1423.32M2146.75 1268.5H2257M2146.75 1268.5V1331.23M2146.75 1331.23L2179.4 1306.38C2182.71 1303.86 2186.75 1302.5 2190.91 1302.5H2218.45C2224.02 1302.5 2229.31 1304.95 2232.92 1309.19L2257 1337.5M2146.75 1108.5L2120.5 1082M2146.75 1108.5H2262M2120.5 1082L2125.79 867.531C2126.05 857.224 2134.48 849 2144.79 849H2148.12M2120.5 1082H2170M2278.5 1082V868C2278.5 857.507 2269.99 849 2259.5 849H2251.38M2278.5 1082L2262 1108.5M2278.5 1082H2224.25M2262 1108.5V1156.5M2170 1082V849M2170 1082H2224.25M2170 849H2224.25M2170 849H2148.12M2224.25 849V1082M2224.25 849H2251.38M2148.12 849L2126.25 817M2126.25 817L2289.5 820M2126.25 817L2148.12 785.333L2178.83 750.448C2182.43 746.349 2187.63 744 2193.09 744H2238.63C2243.52 744 2248.22 745.885 2251.76 749.264L2283.63 779.721C2287.38 783.306 2289.5 788.268 2289.5 793.457V820M2289.5 820L2251.38 849M2146.75 586V662M2146.75 586V331.467C2146.75 326.668 2148.57 322.046 2151.83 318.531L2196.23 270.775C2203.5 262.95 2215.8 262.659 2223.43 270.129L2272.79 318.411C2276.44 321.985 2278.5 326.881 2278.5 331.993V567C2278.5 577.493 2269.99 586 2259.5 586H2246.23C2235.74 586 2227.23 577.493 2227.23 567V374.5C2227.23 364.007 2218.72 355.5 2208.23 355.5H2187.68M2146.75 586L2719 588.503M2356.5 636.5V1062M2377.5 1109.5L2360.4 1087.11C2357.87 1083.79 2356.5 1079.74 2356.5 1075.58V1062M2377.5 1109.5V1156.5M2377.5 1109.5L2639.5 1100.5M2377.5 1156.5L2356.5 1185M2377.5 1156.5H2651.5M2356.5 1185V1284.25M2356.5 1185H2650M2356.5 1635.5L2377.5 1678.5M2356.5 1635.5H2584M2356.5 1635.5V1571.5M2377.5 1678.5L2358.63 1714.89C2357.23 1717.59 2356.5 1720.59 2356.5 1723.63V2195.5M2377.5 1678.5L2650.75 1669.5M2356.5 2285V2195.5M2435.37 1636.78V1436.23C2435.37 1428.44 2440.13 1421.44 2447.38 1418.57L2488.8 1402.16C2491.56 1401.07 2494.54 1400.64 2497.5 1400.91L2552.64 1405.88C2557.07 1406.28 2561.22 1408.22 2564.37 1411.37L2578.44 1425.44C2582 1429 2584 1433.83 2584 1438.87V1635.5M2435.37 1636.78L2902.91 1641.49M2584 1635.5H2651.5M2651.5 1635.5V1571.5M2651.5 1635.5L2650.75 1669.5M2651.5 1383.5V1286.47C2651.5 1285.04 2650.96 1283.67 2650 1282.61V1282.61M2651.5 1383.5H2584M2651.5 1383.5V1571.5M2356.5 1383.5V1284.25M2356.5 1383.5H2420M2356.5 1383.5V1571.5M2356.5 1284.25L2399.41 1242.52C2401.12 1240.85 2403.13 1239.53 2405.33 1238.61L2488.63 1203.83C2491.5 1202.63 2494.62 1202.15 2497.72 1202.44L2576.7 1209.82C2581.4 1210.26 2585.76 1212.43 2588.95 1215.91L2650 1282.61M2584 1383.5V1314.37C2584 1307.11 2579.86 1300.48 2573.33 1297.3L2529.14 1275.75C2525.48 1273.96 2521.34 1273.4 2517.33 1274.15L2464.63 1283.98C2459.44 1284.95 2454.9 1288.03 2452.07 1292.48L2422.96 1338.34C2421.03 1341.38 2420 1344.91 2420 1348.52V1383.5M2584 1383.5H2420M2356.5 1571.5H2523.5M2651.5 1571.5H2523.5M2475 1573.5V1497C2475 1486.51 2483.51 1478 2494 1478H2504.5C2514.99 1478 2523.5 1486.51 2523.5 1497V1571.5M3041.5 1356L3060.5 1246.25M3041.5 1356H3100M3060.5 1246.25L3097.42 1218.44C3099.13 1217.16 3101.04 1216.17 3103.08 1215.52L3145.5 1202M3100 1356V1274.38C3100 1270.55 3101.16 1266.81 3103.32 1263.65L3145.5 1202M3100 1356H3210M3210 1356V1254V1187.5M3210 1356H3267M3267 1356H3324.75M3324.75 1356L3291.5 1285.5L3262.75 1221M3262.75 1221L3277.12 1230.5M4140 1328.23V1283.89C4140 1281 4140.66 1278.15 4141.92 1275.56L4173.66 1210.5M4140 1328.23L4270 1332.86M4173.66 1210.5L4148.83 1228.5M4190 1326.5V1271.3C4190 1269.44 4190.27 1267.6 4190.81 1265.82L4203.45 1223.84C4203.81 1222.62 4204.3 1221.43 4204.91 1220.31L4219.5 1193.2M4219.5 1193.2L4248 1201.85M4270 1332.86V1250.93C4270 1248.01 4269.33 1245.14 4268.04 1242.53L4248 1201.85M4270 1332.86L4324 1334.79M4324 1334.79L4368.62 1336.38C4382.89 1336.89 4392.61 1322.06 4386.44 1309.18L4362.74 1259.71C4360.96 1256.01 4358.03 1252.97 4354.38 1251.07L4287.5 1216.23M4324 1334.79L4313.45 1271.23C4313.15 1269.42 4312.59 1267.66 4311.79 1266.01L4287.5 1216.23M2357 1750.5H2662.5M2662.5 1750.5V1728.19C2662.5 1724.48 2661.41 1720.85 2659.37 1717.75L2653.25 1708.44C2651.13 1705.22 2650.05 1701.44 2650.13 1697.58L2650.75 1669.5M2662.5 1750.5V2195.5M2662.5 2289.5V2195.5M2610.23 1936.48L2616.61 1936.6C2627.81 1936.81 2636.77 1927.34 2635.92 1916.16L2628.69 1821.06C2628.25 1815.33 2625.25 1810.11 2620.51 1806.85L2562.36 1766.85C2559.2 1764.67 2555.44 1763.5 2551.6 1763.5H2495.28C2493.77 1763.5 2492.26 1763.68 2490.78 1764.04L2419.74 1781.36C2415.39 1782.42 2411.55 1784.98 2408.9 1788.6L2381.17 1826.49C2378.78 1829.74 2377.5 1833.68 2377.5 1837.71V1913.36C2377.5 1923.71 2385.79 1932.16 2396.13 1932.36L2593.82 1936.16M2610.23 1936.48L2627 1986.04C2627.66 1988 2628 1990.06 2628 1992.13V2134C2628 2144.49 2619.49 2153 2609 2153H2584M2610.23 1936.48L2593.82 1936.16M2413 1936.48L2402.4 1987.07C2402.14 1988.35 2402 1989.66 2402 1990.97V2134C2402 2144.49 2410.51 2153 2421 2153H2435.37M2435.37 2153V2000C2435.37 1993.19 2439.01 1986.91 2444.91 1983.52L2477.1 1965.03C2479.98 1963.37 2483.25 1962.5 2486.57 1962.5H2537.39C2541.05 1962.5 2544.63 1963.56 2547.71 1965.54L2575.31 1983.39C2580.73 1986.89 2584 1992.89 2584 1999.34V2153M2435.37 2153H2475M2584 2153H2543M2543 2153V2059C2543 2048.51 2534.49 2040 2524 2040H2494C2483.51 2040 2475 2048.51 2475 2059V2153M2543 2153H2475M2435.37 1933.75V1933.75C2427.28 1932.83 2421.91 1924.92 2424.03 1917.06L2433.67 1881.32C2434.77 1877.22 2437.21 1873.62 2440.61 1871.07L2470.93 1848.31C2474.22 1845.84 2478.22 1844.5 2482.34 1844.5H2536.71C2540.79 1844.5 2544.77 1845.82 2548.05 1848.26L2577.8 1870.39C2581.78 1873.35 2584.44 1877.74 2585.22 1882.62L2593.82 1936.16M2356.5 2195.5H2662.5M2662.5 2195.5H2751.5M2973 2195.5H2896.5M2713 2196.5L2719 1978M2719 1978H2759.62M2719 1978L2709.35 1968.02C2705.92 1964.48 2704 1959.74 2704 1954.81V1948M2848 2195.5L2841.21 1984.5C2841.09 1980.88 2838.12 1978 2834.5 1978V1978M2848 2195.5H2800.25M2848 2195.5H2896.5M2800.25 2195.5V1978M2800.25 2195.5H2751.5M2800.25 1978H2759.62M2800.25 1978H2834.5M2751.5 2195.5L2759.62 1978M2834.5 1978V1978C2842.03 1978 2848.2 1972.03 2848.45 1964.51L2849 1948M2704 1948V1829.5M2704 1948H2719M2849 1948L2852.95 1829.5M2849 1948H2834.5M2704 1829.5V1807.85C2704 1802.24 2706.48 1796.92 2710.77 1793.31L2764.7 1747.96C2768.12 1745.08 2772.45 1743.5 2776.93 1743.5H2794.07C2798.08 1743.5 2802 1744.77 2805.25 1747.14L2849 1779M2704 1829.5H2852.95M2852.95 1829.5L2854.27 1789.8C2854.42 1785.55 2852.44 1781.5 2849 1779V1779M2902.91 1641.49L2896.5 2195.5M2710.5 1783L2712.73 1744.61C2712.91 1741.58 2713.81 1738.64 2715.35 1736.03L2729 1713M2729 1713V1688.5C2729 1678.01 2737.51 1669.5 2748 1669.5H2781.75M2729 1713H2781.75M2834.5 1713L2831.1 1686.12C2829.9 1676.62 2821.82 1669.5 2812.25 1669.5H2781.75M2834.5 1713L2846.74 1725.27C2850.68 1729.22 2852.68 1734.7 2852.22 1740.26L2849 1779M2834.5 1713H2781.75M2781.75 1713V1669.5M2719 1948V1898.61C2719 1892.85 2721.61 1887.4 2726.11 1883.8L2754.29 1861.18C2757.66 1858.48 2761.86 1857 2766.18 1857H2802.56C2807.93 1857 2813.06 1859.27 2816.66 1863.26L2829.6 1877.57C2832.75 1881.07 2834.5 1885.61 2834.5 1890.31V1948M2719 1948H2834.5M2148.12 355.5H2187.68M2289.5 355.5H2187.68M2187.68 355.5V567C2187.68 577.493 2196.18 586 2206.68 586H2289C2299.49 586 2308 577.493 2308 567V465.5M2308 256.5L2303.62 218.645C2302.92 212.588 2305.16 206.562 2309.66 202.444L2346.04 169.146C2354.32 161.567 2367.34 162.782 2374.07 171.762L2402 209M2308 256.5V465.5M2308 256.5H2360.5M2402 209L2413 256.5M2402 209L2428.75 140.777C2430.81 135.532 2435.09 131.47 2440.43 129.689L2505.57 107.975C2507.51 107.329 2509.54 107 2511.58 107H2614.74C2622.71 107 2629.83 111.97 2632.57 119.448L2655 180.5M2413 256.5L2402 465.5M2413 256.5L2402 594V546M2413 256.5H2360.5M2402 465.5H2355M2402 465.5V498M2308 465.5H2355M2360.5 256.5L2355 465.5M2655 180.5L2654.37 238M2655 180.5V41.4682C2655 37.2743 2656.39 33.1981 2658.95 29.8753L2671.92 13.0236C2679.98 2.56823 2695.97 3.30351 2703.03 14.4535L2718.92 39.5519C2720.96 42.7758 2721.98 46.5395 2721.86 50.3529L2717.5 180M2402 498H2456.5M2402 498V546M2456.5 498H2632.71C2643.12 498 2651.59 489.621 2651.71 479.209L2654.37 238M2456.5 498L2473.03 302.4C2473.86 292.562 2482.09 285 2491.96 285H2523.5H2566.67C2576.49 285 2584.69 292.48 2585.59 302.256L2604 502M2456.5 256.5V256.5C2444.55 265.83 2451.15 285 2466.31 285H2621.28C2633.33 285 2639.94 270.979 2632.27 261.684V261.684C2629.57 258.401 2625.54 256.5 2621.28 256.5H2604M2456.5 256.5L2471.84 191.728C2473.47 184.829 2478.81 179.414 2485.69 177.682L2534.76 165.323C2539.41 164.151 2544.34 164.782 2548.54 167.09L2589.61 189.622C2595.17 192.671 2598.84 198.288 2599.4 204.601L2604 256.5M2456.5 256.5H2604M2655 227.5L2717.5 180M2654.37 238H2729M2729 238H2764.5M2729 238L2722.05 481.5M2719 588.503L2841 589.036M2719 588.503L2722.05 481.5M2841 589.036V481.5M2841 589.036L2906.57 589.323M2841 238H2853.89C2865.23 238 2870.94 224.31 2862.96 216.25V216.25M2841 238V481.5M2841 238H2813.5M2764.5 238V481.5M2764.5 238H2813.5M2764.5 481.5H2722.05M2764.5 481.5L2805.5 486.5M2841 481.5L2805.5 486.5M2805.5 486.5L2813.5 238M2717.5 180L2766.73 142.584C2774.32 136.814 2785.02 137.565 2791.73 144.34L2841.41 194.5M2841.41 194.5L2841.02 40.9434C2841.01 37.0736 2842.18 33.293 2844.37 30.1073L2853.49 16.8852C2861.52 5.23924 2879.01 6.14133 2885.8 18.5519L2897.73 40.345C2899.22 43.0733 2900.02 46.1262 2900.06 49.236L2900.99 126.75M2841.41 194.5L2862.96 216.25M2906.57 589.323L2905.27 481.5M2906.57 589.323L3204 590.624M2862.96 216.25L2901.98 209M2901.98 209L2902.21 227.5M2901.98 209L2900.99 126.75M2902.21 227.5L2979 224.569M2902.21 227.5L2904.57 423.5M3197 216.25V107M3197 216.25L3130 218.807M3197 216.25L3197.73 238M3197 107L3111.54 55.2476C3108.57 53.4502 3105.17 52.5 3101.7 52.5H3004.44C3000.26 52.5 2996.2 53.8749 2992.89 56.4123L2900.99 126.75M3197 107C3197 96.7889 3197 72.6561 3197 57.9289C3197 54.3774 3198 50.9022 3199.87 47.8878L3217.19 20.0852C3225.02 7.52784 3243.56 8.33426 3250.26 21.5235L3263.94 48.4429C3265.29 51.1099 3266 54.0593 3266 57.0509V180M2979 224.569V164.162C2979 158.373 2981.64 152.9 2986.17 149.295L3008.78 131.3C3012.46 128.371 3017.1 126.912 3021.79 127.203L3096.8 131.866C3103.17 132.262 3108.91 135.827 3112.09 141.358L3127.47 168.102C3129.13 170.984 3130 174.249 3130 177.573V218.807M2979 224.569L3130 218.807M2904.57 423.5H2953M2904.57 423.5L2905.27 481.5M3204 423.5H3148M3204 423.5V486.5M3204 423.5L3197.73 238M3148 224.569V423.5M3148 423.5H2953M2953 423.5V423.5C2953 401.322 2920.9 398.332 2916.8 420.129L2905.27 481.5M2905.27 481.5L3204 486.5M3204 486.5V590.624M3204 486.5H3266M3204 590.624L3266 590.895M3266 590.895V486.5M3266 590.895L3454 591.717M3266 180L3311.01 141.823C3317.51 136.311 3326.88 135.8 3333.94 140.572L3393 180.5M3266 180V238M3393 180.5V238M3393 180.5V55.963C3393 53.6732 3393.41 51.4023 3394.22 49.2597L3403.33 25.1094C3408.71 10.8318 3427.88 8.40412 3436.65 20.8887L3439.11 24.3815C3441 27.0806 3442.16 30.227 3442.48 33.5112L3454 155M3393 588.503V486.5M3393 486.5V238M3393 486.5H3351.75M3393 486.5H3454M3266 486.5H3310.5M3266 486.5V238M3310.5 486.5V257C3310.5 246.507 3301.99 238 3291.5 238H3266M3310.5 486.5H3351.75M3266 238H3197.73M3393 238H3367.75C3357.16 238 3348.61 246.659 3348.75 257.248L3351.75 486.5M3393 238H3454M3454 591.717V486.5M3454 591.717L3822.5 593.329M3454 155L3505.18 111.52C3508.61 108.602 3512.97 107 3517.48 107H3613.48C3616.77 107 3620 107.853 3622.86 109.476L3682.88 143.539C3688.83 146.914 3692.5 153.225 3692.5 160.063V193.5M3454 155V238M3692.5 238H3648M3692.5 238L3720.5 241.951M3692.5 238V193.5M3454 238H3648M3454 238V486.5M3510.5 244.5V191.511C3510.5 184.701 3514.14 178.411 3520.05 175.026L3549.7 158.039C3553.14 156.063 3557.13 155.218 3561.08 155.624L3605 160.128C3610.41 160.683 3615.32 163.526 3618.49 167.94L3644.43 204.031C3646.75 207.262 3648 211.141 3648 215.12V238M3454 486.5L3510.5 485.72M3816 481.5L3821.07 338M3816 481.5L3780 481.997M3816 481.5L3822.5 593.329M3822.5 297.5L3881.99 263.144C3888.9 259.154 3897.57 259.906 3903.69 265.026L3960.19 312.304C3964.51 315.914 3967 321.25 3967 326.876V338M3822.5 297.5L3821.07 338M3822.5 297.5L3816 245.397M3967 338H3821.07M3967 338L3939.95 342.404C3930.75 343.901 3924 351.842 3924 361.157V588.503M3967 338V593.049M3871.5 345V593.543M3871.5 593.543L3924 588.503M3871.5 593.543L3822.5 593.329M3924 588.503L3967 593.049M3967 593.049V593.049C3972.12 593.589 3976 597.905 3976 603.05V616C3976 626.493 3967.49 635 3957 635H3947M3999.5 662V451M3999.5 662H4140M3999.5 662V699.5M4140 451V431.572C4140 426.414 4137.9 421.477 4134.19 417.896L4082.74 368.268C4075.36 361.15 4063.66 361.171 4056.31 368.315L4005.26 417.904C4001.58 421.481 3999.5 426.397 3999.5 431.532V451M4140 451H3999.5M4140 451V662M4140 662L4141.36 699.5M4040.5 1130L4050.15 923.612C4050.63 913.475 4058.98 905.5 4069.13 905.5H4073.1C4083.36 905.5 4091.76 913.637 4092.09 923.887L4098.75 1130M4040.5 1130H4098.75M4040.5 1130H4020M4098.75 1130H4127.88M3999.5 896V1111C3999.5 1121.49 4008.01 1130 4018.5 1130H4020M3999.5 896V785.333M3999.5 896H4021.5M4148.5 896L4156.28 1110.31C4156.68 1121.07 4148.06 1130 4137.3 1130H4127.88M4148.5 896L4144.25 779M4148.5 896H4117M4144.25 779L4140 779.186M4144.25 779L4141.36 699.5M3999.5 785.333V779M3999.5 785.333L4140 779.186M3999.5 779L4036.93 740.659C4039.27 738.262 4042.2 736.527 4045.43 735.628L4072.95 727.963C4077.49 726.7 4082.33 727.166 4086.54 729.272L4112.46 742.232C4115.44 743.718 4117.97 745.957 4119.8 748.726L4140 779.186M3999.5 779V699.5M4021.5 896V852.367C4021.5 847.036 4023.74 841.95 4027.67 838.351L4045.55 821.984C4049.06 818.778 4053.63 817 4058.38 817H4088.66C4094.97 817 4100.87 820.132 4104.4 825.36L4113.74 839.179C4115.87 842.321 4117 846.027 4117 849.819V896M4021.5 896H4117M3999.5 699.5H4141.36M4020 1130L4021.42 1182.09C4021.47 1184.02 4021.23 1185.94 4020.7 1187.8L4000.63 1258.42M4000.63 1258.42L3965.79 1240M4127.88 1130L4118.62 1176.82C4117.59 1182.03 4118.79 1187.44 4121.92 1191.73L4148.83 1228.5M2356.5 1062H2379.25M2662.5 1062L2639.5 1100.5M2662.5 1062H2625M2662.5 1062V791M2902.91 635L2681.38 636.382C2670.93 636.447 2662.5 644.935 2662.5 655.382V791M2902.91 635H3286M2639.5 1100.5L2651.5 1156.5M2651.5 1156.5L2650 1173V1185M2650 1282.61V1185M3251.5 817L3243.57 831.734C3241.89 834.849 3241.11 838.371 3241.33 841.903L3241.41 843.161C3242.02 853.185 3250.33 861 3260.37 861H3393M3251.5 817H3393M3251.5 817L3245.04 763.593C3244.38 758.134 3246.12 752.657 3249.8 748.576L3286 708.5M3393 861L3399.29 843.878C3401.03 839.153 3400.82 833.934 3398.71 829.364L3393 817M3393 861V1063C3393 1073.49 3384.49 1082 3374 1082H3367.62M3393 817L3401.21 744.022C3401.72 739.492 3400.58 734.93 3398.01 731.168L3382.5 708.5M3286 708.5H3358.5H3382.5M3286 708.5L3270.18 690.417C3264.96 684.453 3263.99 675.876 3267.75 668.898L3286 635M3382.5 708.5L3384.2 707.715C3393.94 703.22 3398.03 691.56 3393.23 681.967L3375.65 646.796C3372.48 640.467 3366.07 636.421 3358.99 636.296L3286 635M3286 635H3947M3261.5 872.5L3262.66 1067.63C3262.71 1075.58 3269.17 1082 3277.12 1082V1082M3291.5 872.5V1082M3291.5 1082H3342.25M3291.5 1082H3277.12M3342.25 1082L3351.75 872.5M3342.25 1082H3367.62M3277.12 1082V1147M3277.12 1147L3261.5 1185L3251.5 1210.5M3277.12 1147H3382.5M3415.17 1258.42L3428.01 1248.44C3429.66 1247.15 3431.51 1246.15 3433.48 1245.47L3449.35 1240M3415.17 1258.42L3402.46 1189.99C3402.16 1188.34 3401.63 1186.73 3400.9 1185.22L3382.5 1147M3382.5 1147L3367.62 1082M3277.12 1230.5L3304.2 1193.6C3308.11 1188.26 3314.52 1185.34 3321.12 1185.9L3344.37 1187.87C3349.12 1188.28 3353.54 1190.45 3356.76 1193.96L3378.95 1218.13C3381.27 1220.66 3382.87 1223.78 3383.56 1227.15L3393 1273M3510.5 485.72L3648 483.82M3510.5 485.72V439M3648 483.82L3720.5 482.819M3648 483.82V439M3720.5 482.819V256.5V241.951M3720.5 482.819L3780 481.997M3780 481.997L3774 249.5M3774 249.5L3720.5 241.951M3774 249.5C3783.09 249.5 3802.98 247.138 3816 245.397M3692.5 193.5L3738.3 162.836C3745.25 158.181 3754.43 158.621 3760.9 163.918L3810.6 204.581C3814.09 207.434 3816.45 211.433 3817.26 215.864L3821.32 238.046C3821.96 241.569 3819.55 244.922 3816 245.397V245.397M3510.5 439V318.729C3510.5 311.802 3514.27 305.425 3520.34 302.084L3548.66 286.49C3552.74 284.242 3557.51 283.573 3562.05 284.611L3611.56 295.916C3616.04 296.937 3619.99 299.543 3622.69 303.252L3644.36 333C3646.72 336.249 3648 340.166 3648 344.186V439M3510.5 439H3535.5M3648 439H3613.5M3613.5 439V358.781C3613.5 347.618 3603.92 338.86 3592.8 339.858L3552.8 343.447C3543.01 344.326 3535.5 352.536 3535.5 362.371V439M3613.5 439H3535.5M2402 546H3816H3826.97M2894 1062V1067.69C2894 1078.3 2902.69 1086.86 2913.31 1086.69L3185.56 1082.3C3195.83 1082.13 3204.11 1073.83 3204.25 1063.56L3209.74 655.756C3209.88 645.163 3201.34 636.5 3190.74 636.5H2913C2902.51 636.5 2894 645.007 2894 655.5V779M2894 1062H2933.5M2894 1062V779M3204 1062H3173.5M3121.5 1062H2973M3121.5 1062V1014M3121.5 1062H3173.5M2973 1062V872.634C2973 865.494 2977 858.957 2983.36 855.711L3016.93 838.577C3019.61 837.212 3022.57 836.5 3025.57 836.5H3075.32C3077.1 836.5 3078.87 836.749 3080.57 837.239L3107.75 845.048C3115.89 847.388 3121.5 854.837 3121.5 863.309V1014M2973 1062H2933.5M2969.5 1014H3021M3121.5 1014H3100M3100 1014V939C3100 928.507 3091.49 920 3081 920H3040C3029.51 920 3021 928.507 3021 939V1014M3100 1014H3021M2933.5 1062V719.919C2933.5 712.892 2937.38 706.439 2943.58 703.141L3016.82 664.222C3019.56 662.763 3022.63 662 3025.74 662H3115.63C3119.46 662 3123.19 663.153 3126.35 665.308L3165.21 691.842C3170.4 695.382 3173.5 701.256 3173.5 707.534V820M3173.5 1062V820M3173.5 820L3130 791M3130 791H2979M3130 791L3122.81 745.322C3121.98 740.023 3118.94 735.323 3114.45 732.383L3082.74 711.607C3079.65 709.58 3076.03 708.5 3072.33 708.5H3027.95C3023.46 708.5 3019.12 710.09 3015.69 712.989L2985.73 738.307C2981.46 741.918 2979 747.226 2979 752.818V791M2979 791L2936.5 836.5M2402 1062V817M2402 1062H2435.37M2402 1062H2379.25M2402 817L2432 745.072C2434.14 739.949 2438.41 736.017 2443.69 734.309L2516.28 710.836C2520.91 709.336 2525.95 709.676 2530.34 711.785L2588.57 739.735C2594.71 742.682 2598.81 748.69 2599.3 755.483L2604 820V1062M2402 817L2452.08 797.702C2454.98 796.584 2458.11 796.195 2461.2 796.569L2531.82 805.116C2533.93 805.37 2535.97 805.975 2537.88 806.904L2598.5 836.5M2604 1062H2559.5M2604 1062H2625M2559.5 1062L2557.63 863.192C2557.55 854.775 2551.95 847.413 2543.85 845.101L2512.85 836.243C2509.99 835.426 2506.98 835.291 2504.06 835.851L2450.8 846.047C2441.85 847.761 2435.37 855.592 2435.37 864.708V1014M2559.5 1062H2435.37M2435.37 1062V1014M2435.37 1014H2479.44M2559.5 1014H2523.5M2523.5 1014V939C2523.5 928.507 2514.99 920 2504.5 920H2494.52C2483.64 920 2474.98 929.126 2475.55 939.996L2479.44 1014M2523.5 1014H2479.44M2379.25 1062V718.24C2379.25 712.125 2382.19 706.384 2387.16 702.814L2440.91 664.157C2444.22 661.782 2448.2 660.53 2452.26 660.584L2551.89 661.924C2555.55 661.974 2559.12 663.081 2562.17 665.114L2616.54 701.36C2621.83 704.883 2625 710.816 2625 717.168V1062M2704 1062V847.495M2704 1062H2752.12M2704 847.495V817M2704 847.495H2854.5M2704 817V800.937C2704 794.712 2707.05 788.882 2712.16 785.332L2770.72 744.658C2777.33 740.068 2786.12 740.139 2792.65 744.835L2841.09 779.647C2846.06 783.217 2849 788.96 2849 795.076V820M2704 817L2849 820M2849 820L2854.5 847.495M2854.5 847.495L2841.41 1062M2841.41 1062H2800.25M2800.25 1062V868C2800.25 857.507 2791.74 849 2781.25 849H2777.85C2767.62 849 2759.22 857.111 2758.86 867.343L2752.12 1062M2800.25 1062H2752.12M2662.5 791L2725.11 729.328C2727.65 726.826 2730.85 725.09 2734.32 724.317L2796.64 710.469C2802.24 709.224 2808.11 710.579 2812.6 714.156L2894 779M2711 744.5V685.865C2711 682.357 2711.97 678.917 2713.81 675.927L2732.44 645.563C2735.89 639.932 2742.03 636.5 2748.63 636.5H2821.68C2829.43 636.5 2836.4 641.201 2839.3 648.382L2852.77 681.71C2853.91 684.529 2854.35 687.58 2854.07 690.606L2849 744.5M3449.35 1240L3431.62 1190.61C3430.88 1188.55 3430.5 1186.38 3430.5 1184.19V1176C3430.5 1174.01 3430.81 1172.04 3431.43 1170.14L3454 1100.5M3454 1100.5L3446.82 1094.85C3438.05 1087.94 3437.09 1075.01 3444.74 1066.89L3449.35 1062M3454 1100.5H3720.5M3449.35 1062L3453.89 715.536C3453.96 710.107 3456.35 704.967 3460.46 701.415L3530.15 641.13C3533.6 638.144 3538.01 636.5 3542.58 636.5H3674.01C3680.09 636.5 3685.79 639.401 3689.37 644.307L3738.67 711.935C3740.84 714.914 3742.1 718.46 3742.29 722.142L3760.33 1069.1C3760.73 1076.88 3756.34 1084.13 3749.25 1087.37L3720.5 1100.5M3449.35 1062H3761M3720.5 1100.5L3734.81 1144.85C3735.27 1146.28 3735.9 1147.65 3736.68 1148.93L3761 1188.73M3761 1188.73L3810.5 1195.96M3449.35 1014H3507.93M3761 1014H3683.68M3683.68 1014V872.5M3683.68 1014H3566.51M3683.68 872.5L3642.7 840.626C3639.27 837.956 3635.03 836.544 3630.68 836.625L3565.04 837.85C3559.9 837.946 3555.02 840.118 3551.51 843.872L3539.98 856.204C3537.08 859.311 3535.3 863.303 3534.93 867.541L3523.91 994.914C3522.91 1006.52 3532.49 1016.29 3544.12 1015.51L3566.51 1014M3683.68 872.5L3697.57 851.503C3702.71 843.722 3701.45 833.355 3694.59 827.038L3683.68 817M3566.51 1014L3618.94 1016.22C3629.22 1016.65 3637.98 1008.83 3638.7 998.573L3642.26 948.075C3642.96 938.162 3635.9 929.384 3626.07 927.94L3592.52 923.013C3581.49 921.394 3571.44 929.575 3570.79 940.705L3566.51 1014ZM3566.51 1014H3507.93M3507.93 1014L3510.4 867.119C3510.46 863.14 3509.28 859.241 3507.01 855.972L3500.53 846.621C3494.28 837.615 3496.93 825.205 3506.31 819.534L3510.5 817M3510.5 817L3520.54 737.542C3521.44 730.459 3526.23 724.475 3532.94 722.052L3593.67 700.143C3598.37 698.449 3603.54 698.671 3608.07 700.759L3654.36 722.09C3659.72 724.556 3663.62 729.364 3664.93 735.108L3683.68 817M3510.5 817H3683.68M3965.79 1240L3967.38 1177.55C3967.46 1174.56 3966.83 1171.59 3965.54 1168.89L3948.85 1133.88C3947.63 1131.33 3947 1128.53 3947 1125.7V1115.36C3947 1106.67 3953.02 1099.15 3961.5 1097.25L3962.12 1097.11C3970.23 1095.29 3976 1088.09 3976 1079.77V1070.5C3976 1065.81 3972.19 1062 3967.5 1062V1062M3810.5 1195.96V1178.24C3810.5 1170.53 3815.15 1163.59 3822.28 1160.66L3823.8 1160.04C3832.31 1156.54 3837.09 1147.45 3835.15 1138.46L3827.49 1102.92C3827.15 1101.31 3826.6 1099.76 3825.85 1098.3L3819.99 1086.79C3816.95 1080.83 3817.68 1073.64 3821.85 1068.41V1068.41C3825.09 1064.36 3829.99 1062 3835.18 1062H3838.5M3852.5 642L3826.44 675.448C3823.88 678.725 3822.47 682.75 3822.43 686.904L3821.07 802.93M3821.07 802.93H3976M3821.07 802.93L3909.5 746.289C3917.73 741.018 3928.61 742.849 3934.66 750.522L3976 802.93M3821.07 802.93L3822.86 808.096C3825.35 815.311 3831.92 820.332 3839.54 820.843L3953.78 828.509C3965.44 829.291 3975.04 819.461 3973.97 807.822L3967.5 737M3976 802.93L3956 785.333M3826.97 725.5L3885.58 702.595C3890.62 700.626 3896.26 700.898 3901.08 703.344L3967.5 737M3967.5 737L3960.19 716.664C3957.64 709.575 3959.52 701.651 3964.99 696.463L3965.22 696.241C3971.55 690.225 3972.97 680.667 3968.65 673.074L3947 635M3838.5 830V1062M3838.5 1062H3924M3882 1064V849C3882 838.507 3890.51 830 3901 830H3905.26C3915.76 830 3924.27 838.521 3924.26 849.023L3924 1062M3924 1062H3967.5M3967.5 1062L3965.79 830M1199.5 940.5C1198.14 940.5 1195.16 956.667 1192.61 972.519C1190.84 983.518 1199.06 993.531 1210.18 994.149L1230.23 995.263C1241.91 995.912 1251.39 985.949 1250.18 974.312L1248.66 959.801C1247.7 950.655 1240.33 943.508 1231.16 942.832L1199.5 940.5ZM1009.5 1305.75C994.763 1305.75 999.564 1279.69 1005.82 1260.31C1007.9 1253.86 1013.63 1249.38 1020.33 1248.37L1034.17 1246.29C1045.66 1244.56 1056 1253.45 1056 1265.07V1286.75C1056 1297.24 1047.5 1305.75 1037 1305.75C1028.43 1305.75 1018.55 1305.75 1009.5 1305.75ZM951 1350.5C954.783 1350.5 958.778 1366.93 961.692 1383.14C963.721 1394.42 954.841 1404.5 943.378 1404.5H921.145C911.196 1404.5 902.932 1396.83 902.197 1386.9L901.011 1370.9C900.195 1359.89 908.912 1350.5 919.959 1350.5C933.451 1350.5 947.422 1350.5 951 1350.5ZM3976 1602.5V1660.78C3976 1670.76 3983.72 1679.04 3993.68 1679.73L4020.18 1681.58C4031.16 1682.35 4040.5 1673.64 4040.5 1662.63V1573C4040.5 1562.51 4031.99 1554 4021.5 1554H3995C3984.51 1554 3976 1562.51 3976 1573V1602.5ZM3130 355.5L3121.27 279.39C3120.24 270.43 3113.05 263.428 3104.07 262.63L3040.65 257.001C3036.96 256.674 3033.26 257.43 3030 259.176L2995.01 277.907C2989.11 281.065 2985.31 287.095 2985 293.779L2979.92 403.622C2979.42 414.448 2988.06 423.5 2998.9 423.5H3111C3121.49 423.5 3130 414.993 3130 404.5V355.5ZM2505.94 371.502L2496.52 430.502C2494.67 442.045 2503.59 452.5 2515.28 452.5H2540.1C2550.75 452.5 2559.32 443.753 2559.1 433.108L2557.88 374.108C2557.67 363.77 2549.23 355.5 2538.89 355.5H2524.7C2515.37 355.5 2507.42 362.283 2505.94 371.502ZM3470.33 1591.17V1659.5C3470.33 1669.99 3461.83 1678.5 3451.33 1678.5H3431.23C3420.73 1678.5 3412.23 1669.99 3412.23 1659.5V1591.86C3412.23 1581.62 3420.34 1573.22 3430.57 1572.87L3450.68 1572.18C3461.42 1571.81 3470.33 1580.42 3470.33 1591.17ZM4287.5 2035.83V1882.98C4287.5 1877.88 4285.45 1872.99 4281.8 1869.41L4242.5 1830.89C4238.68 1827.14 4233.45 1825.18 4228.11 1825.48L4134.39 1830.9C4127.92 1831.27 4122.08 1834.92 4118.91 1840.58L4093.92 1885.17C4092.33 1888.01 4091.5 1891.21 4091.5 1894.46V2022.53C4091.5 2032.41 4099.07 2040.64 4108.91 2041.47L4266.91 2054.77C4277.99 2055.7 4287.5 2046.96 4287.5 2035.83ZM1651.5 1856.5H1677C1687.49 1856.5 1696 1847.99 1696 1837.5V1816.5C1696 1806.01 1687.49 1797.5 1677 1797.5H1651.5C1641.01 1797.5 1632.5 1806.01 1632.5 1816.5V1837.5C1632.5 1847.99 1641.01 1856.5 1651.5 1856.5ZM1945.5 1989H1937.33C1926.84 1989 1918.33 1980.49 1918.33 1970V1845.94C1918.33 1834.72 1928 1825.94 1939.17 1827.03L1947.34 1827.83C1957.08 1828.78 1964.5 1836.96 1964.5 1846.74V1970C1964.5 1980.49 1955.99 1989 1945.5 1989ZM3267 2021V1894.53C3267 1891.23 3266.14 1887.99 3264.51 1885.13L3239.46 1841.1C3236.09 1835.17 3229.78 1831.5 3222.95 1831.5H3154.44C3149.66 1831.5 3145.05 1833.31 3141.54 1836.56L3106.09 1869.36C3102.21 1872.96 3100 1878.01 3100 1883.3V2021C3100 2031.49 3108.51 2040 3119 2040H3248C3258.49 2040 3267 2031.49 3267 2021ZM1228 1527H1216.09C1206.59 1527 1198.54 1519.98 1197.26 1510.56L1192.43 1475.06C1190.88 1463.66 1199.75 1453.5 1211.26 1453.5H1228C1238.49 1453.5 1247 1462.01 1247 1472.5V1508C1247 1518.49 1238.49 1527 1228 1527ZM1133 1527H1113C1102.51 1527 1094 1518.49 1094 1508V1472.5C1094 1462.01 1102.51 1453.5 1113 1453.5H1133C1143.49 1453.5 1152 1462.01 1152 1472.5V1508C1152 1518.49 1143.49 1527 1133 1527ZM1026.5 1527H1021C1010.51 1527 1002 1518.49 1002 1508C1002 1496.27 1002 1483.11 1002 1472.5C1002 1462 1010.51 1453.5 1021 1453.5H1026.5C1036.99 1453.5 1045.5 1462.01 1045.5 1472.5V1508C1045.5 1518.49 1036.99 1527 1026.5 1527ZM958 1472.5V1508C958 1518.49 949.493 1527 939 1527H907.5C897.007 1527 888.5 1518.49 888.5 1508V1472.5C888.5 1462.01 897.007 1453.5 907.5 1453.5H939C949.493 1453.5 958 1462.01 958 1472.5ZM824.035 1529.16L839.535 1531.19C850.91 1532.68 861 1523.82 861 1512.35V1472.5C861 1462.01 852.493 1453.5 842 1453.5H826.5C816.007 1453.5 807.5 1462.01 807.5 1472.5V1510.32C807.5 1519.86 814.575 1527.93 824.035 1529.16ZM1189.5 1385.5V1375C1189.5 1364.51 1198.01 1356 1208.5 1356H1236.7C1245.86 1356 1253.71 1362.53 1255.38 1371.53L1257.33 1382.03C1259.5 1393.72 1250.53 1404.5 1238.65 1404.5H1208.5C1198.01 1404.5 1189.5 1395.99 1189.5 1385.5ZM1143.58 1407.94L1126.53 1410.87C1115.33 1412.8 1104.96 1404.54 1104.33 1393.19L1103.22 1372.87C1102.58 1361.16 1112.61 1351.67 1124.27 1352.95L1138.68 1354.53C1146.67 1355.41 1153.24 1361.22 1155.09 1369.04L1158.84 1384.83C1161.36 1395.49 1154.37 1406.07 1143.58 1407.94ZM1056 1375V1390.98C1056 1403.08 1044.84 1412.1 1033.01 1409.55L1022.28 1407.25C1014.58 1405.59 1008.71 1399.36 1007.5 1391.58L1005.39 1377.9C1003.61 1366.39 1012.51 1356 1024.16 1356H1037C1047.49 1356 1056 1364.51 1056 1375ZM1248.69 1267.13L1250.44 1284.88C1251.54 1296.06 1242.76 1305.75 1231.53 1305.75H1215.4C1206.2 1305.75 1198.32 1299.16 1196.69 1290.1L1193.51 1272.35C1191.42 1260.7 1200.38 1250 1212.21 1250H1229.78C1239.55 1250 1247.73 1257.41 1248.69 1267.13ZM1136.17 1305.75H1121C1110.51 1305.75 1102 1297.24 1102 1286.75V1266.96C1102 1257.3 1109.25 1249.17 1118.85 1248.08L1138.04 1245.9C1150.71 1244.46 1161.18 1255.66 1158.88 1268.2L1154.85 1290.18C1153.2 1299.2 1145.34 1305.75 1136.17 1305.75ZM861 1262V1286.75C861 1297.24 852.493 1305.75 842 1305.75H826.5C816.007 1305.75 807.5 1297.24 807.5 1286.75V1262C807.5 1251.51 816.007 1243 826.5 1243H842C852.493 1243 861 1251.51 861 1262ZM1248.38 1060.39L1251.34 1111.4C1251.97 1122.31 1243.29 1131.5 1232.37 1131.5H1218.5C1208.01 1131.5 1199.5 1122.99 1199.5 1112.5V1064.71C1199.5 1056.28 1205.05 1048.86 1213.13 1046.48L1224.04 1043.27C1235.78 1039.81 1247.68 1048.18 1248.38 1060.39ZM1133 1131.5H1123.7C1113.52 1131.5 1105.15 1123.49 1104.71 1113.32L1102.65 1065.55C1102.27 1056.74 1108.01 1048.82 1116.51 1046.44L1127.88 1043.25C1139.99 1039.86 1152 1048.97 1152 1061.55V1112.5C1152 1122.99 1143.49 1131.5 1133 1131.5ZM1145.5 955.802V977.8C1145.5 986.686 1139.34 994.386 1130.67 996.337L1128.67 996.787C1116.79 999.459 1105.43 990.426 1104.88 978.263C1104.61 972.158 1104.22 965.457 1103.7 958.578C1102.93 948.449 1109.9 939.229 1119.93 937.615L1123.48 937.043C1135.03 935.185 1145.5 944.104 1145.5 955.802ZM1056 955.122V977.5C1056 987.993 1047.49 996.5 1037 996.5H1021C1010.51 996.5 1002 987.993 1002 977.5V957.196C1002 947.647 1009.09 939.581 1018.56 938.354L1034.56 936.28C1045.93 934.806 1056 943.659 1056 955.122ZM958 1057.9V1112.5C958 1122.99 949.493 1131.5 939 1131.5H922.5C912.007 1131.5 903.5 1122.99 903.5 1112.5V1059.87C903.5 1050.25 910.695 1042.14 920.25 1041L936.75 1039.03C948.055 1037.69 958 1046.52 958 1057.9ZM807.5 1112.5V1055.5C807.5 1045.01 816.007 1036.5 826.5 1036.5H842C852.493 1036.5 861 1045.01 861 1055.5V1112.5C861 1122.99 852.493 1131.5 842 1131.5H826.5C816.007 1131.5 807.5 1122.99 807.5 1112.5ZM951 959.5V977.5C951 987.993 942.493 996.5 932 996.5H922.5C912.007 996.5 903.5 987.993 903.5 977.5V959.5C903.5 949.007 912.007 940.5 922.5 940.5H932C942.493 940.5 951 949.007 951 959.5ZM1233.5 903H1208.5C1198.01 903 1189.5 894.493 1189.5 884V854C1189.5 843.507 1198.01 835 1208.5 835H1233.5C1243.99 835 1252.5 843.507 1252.5 854V884C1252.5 894.493 1243.99 903 1233.5 903ZM1121 903H1113C1102.51 903 1094 894.493 1094 884V854C1094 843.507 1102.51 835 1113 835H1121C1131.49 835 1140 843.507 1140 854V884C1140 894.493 1131.49 903 1121 903ZM1037 903H1021C1010.51 903 1002 894.493 1002 884V854C1002 843.507 1010.51 835 1021 835H1037C1047.49 835 1056 843.507 1056 854V884C1056 894.493 1047.49 903 1037 903ZM951 854V884C951 894.493 942.493 903 932 903H922.5C912.007 903 903.5 894.493 903.5 884V854C903.5 843.507 912.007 835 922.5 835H932C942.493 835 951 843.507 951 854ZM861 959.5V977.5C861 987.993 852.493 996.5 842 996.5H813C802.507 996.5 794 987.993 794 977.5V959.5C794 949.007 802.507 940.5 813 940.5H842C852.493 940.5 861 949.007 861 959.5ZM861 854V884C861 894.493 852.493 903 842 903H813C802.507 903 794 894.493 794 884V854C794 843.507 802.507 835 813 835H842C852.493 835 861 843.507 861 854Z" stroke="white" stroke-width="10" shape-rendering="crispEdges"/>
</g>
<defs>
<filter id="filter0_d_1_4" x="0" y="0.616211" width="4506.5" height="2307.88" filterUnits="userSpaceOnUse" color-interpolation-filters="sRGB">
<feFlood flood-opacity="0" result="BackgroundImageFix"/>
<feColorMatrix in="SourceAlpha" type="matrix" values="0 0 0 0 0 0 0 0 0 0 0 0 0 0 0 0 0 0 127 0" result="hardAlpha"/>
<feOffset dx="10" dy="10"/>
<feGaussianBlur stdDeviation="2"/>
<feComposite in2="hardAlpha" operator="out"/>
<feColorMatrix type="matrix" values="0 0 0 0 0 0 0 0 0 0 0 0 0 0 0 0 0 0 0.25 0"/>
<feBlend mode="normal" in2="BackgroundImageFix" result="effect1_dropShadow_1_4"/>
<feBlend mode="normal" in="SourceGraphic" in2="effect1_dropShadow_1_4" result="shape"/>
</filter>
</defs>
</svg>
